<?xml version="1.0" encoding="utf-8"?>
<!-- Generator: Adobe Illustrator 25.2.3, SVG Export Plug-In . SVG Version: 6.00 Build 0)  -->
<svg version="1.1" id="Layer_1" xmlns="http://www.w3.org/2000/svg" xmlns:xlink="http://www.w3.org/1999/xlink" x="0px" y="0px"
	 viewBox="0 0 600 165" style="enable-background:new 0 0 600 165;" xml:space="preserve">
<style type="text/css">
	.st0{fill:#FFFFFF;}
	.st1{fill:none;}
	.st2{fill:none;stroke:#000000;stroke-width:3;stroke-miterlimit:10;}
	.st3{fill:none;stroke:#000000;stroke-width:12.5;stroke-miterlimit:10;}
	.st4{fill:#C0C0C0;}
	.st5{fill:none;stroke:#000000;stroke-width:5;stroke-miterlimit:10;}
	.st6{fill:none;stroke:#C0C0C0;stroke-miterlimit:10;}
	.st7{fill:#434343;}
	.st8{fill:#D0D1D0;}
	.st9{fill:#808080;}
	.st10{fill:none;stroke:#000000;stroke-width:2;stroke-miterlimit:10;}
	.st11{fill:none;stroke:#000000;stroke-miterlimit:10;}
	.st12{fill:#0BA24A;}
	.st13{fill:none;stroke:#0BA24A;stroke-width:3;stroke-miterlimit:10;}
	.st14{fill:none;stroke:#0BA24A;stroke-width:2;stroke-miterlimit:10;}
	.st15{fill:#414141;}
</style>
<rect class="st0" width="600" height="165"/>
<g>
	<rect y="129.9" class="st1" width="100" height="12.3"/>
	<path d="M26.4,134.4c0,1-0.3,1.8-1,2.4c-0.7,0.6-1.7,0.8-2.9,0.8h-1v3.7h-1.6v-10h2.9c1.2,0,2.2,0.3,2.8,0.8
		C26,132.6,26.4,133.4,26.4,134.4z M21.4,136.2h0.9c0.8,0,1.5-0.1,1.9-0.4c0.4-0.3,0.6-0.8,0.6-1.4c0-0.6-0.2-1-0.5-1.3
		c-0.4-0.3-0.9-0.4-1.6-0.4h-1.1L21.4,136.2L21.4,136.2z"/>
	<path d="M32,133.6c0.3,0,0.6,0,0.8,0.1l-0.2,1.5c-0.2-0.1-0.5-0.1-0.7-0.1c-0.6,0-1.2,0.2-1.6,0.6s-0.6,1-0.6,1.6v3.9h-1.6v-7.6
		h1.3l0.2,1.3h0.1c0.2-0.4,0.6-0.8,1-1.1C31.1,133.8,31.5,133.6,32,133.6z"/>
	<path d="M37.5,141.5c-1.2,0-2.1-0.3-2.8-1s-1-1.6-1-2.8c0-1.2,0.3-2.2,0.9-2.9c0.6-0.7,1.5-1.1,2.5-1.1c1,0,1.8,0.3,2.4,0.9
		c0.6,0.6,0.9,1.4,0.9,2.5v0.9h-5c0,0.7,0.2,1.3,0.6,1.7s0.9,0.6,1.6,0.6c0.5,0,0.9,0,1.2-0.1c0.4-0.1,0.8-0.2,1.2-0.4v1.3
		c-0.4,0.2-0.8,0.3-1.2,0.4C38.5,141.4,38,141.5,37.5,141.5z M37.2,134.8c-0.5,0-0.9,0.2-1.2,0.5c-0.3,0.3-0.5,0.8-0.5,1.4h3.4
		c0-0.6-0.2-1.1-0.5-1.4S37.7,134.8,37.2,134.8z"/>
	<path d="M47.3,139.2c0,0.7-0.3,1.3-0.8,1.7c-0.5,0.4-1.3,0.6-2.3,0.6c-1,0-1.8-0.1-2.4-0.5v-1.4c0.9,0.4,1.7,0.6,2.5,0.6
		c1,0,1.5-0.3,1.5-0.9c0-0.2,0-0.4-0.2-0.5c-0.1-0.1-0.3-0.3-0.5-0.4s-0.6-0.3-1-0.5c-0.9-0.3-1.5-0.7-1.8-1s-0.5-0.8-0.5-1.3
		c0-0.6,0.3-1.1,0.8-1.5s1.2-0.5,2.1-0.5c0.9,0,1.7,0.2,2.5,0.5l-0.5,1.2c-0.8-0.3-1.5-0.5-2.1-0.5c-0.8,0-1.3,0.2-1.3,0.7
		c0,0.2,0.1,0.4,0.3,0.6s0.7,0.4,1.5,0.7c0.6,0.2,1.1,0.5,1.4,0.7s0.5,0.4,0.6,0.7C47.3,138.5,47.3,138.8,47.3,139.2z"/>
	<path d="M54.2,139.2c0,0.7-0.3,1.3-0.8,1.7c-0.5,0.4-1.3,0.6-2.3,0.6c-1,0-1.8-0.1-2.4-0.5v-1.4c0.9,0.4,1.7,0.6,2.5,0.6
		c1,0,1.5-0.3,1.5-0.9c0-0.2,0-0.4-0.2-0.5c-0.1-0.1-0.3-0.3-0.5-0.4s-0.6-0.3-1-0.5c-0.9-0.3-1.5-0.7-1.8-1s-0.5-0.8-0.5-1.3
		c0-0.6,0.3-1.1,0.8-1.5s1.2-0.5,2.1-0.5c0.9,0,1.7,0.2,2.5,0.5l-0.5,1.2c-0.8-0.3-1.5-0.5-2.1-0.5c-0.8,0-1.3,0.2-1.3,0.7
		c0,0.2,0.1,0.4,0.3,0.6s0.7,0.4,1.5,0.7c0.6,0.2,1.1,0.5,1.4,0.7s0.5,0.4,0.6,0.7C54.1,138.5,54.2,138.8,54.2,139.2z"/>
	<path d="M64,141.3l-2.9-8.4h0c0.1,1.2,0.1,2.4,0.1,3.5v4.9h-1.5v-10H62l2.8,7.9h0l2.9-7.9H70v10h-1.6v-4.9c0-0.5,0-1.1,0-1.9
		c0-0.8,0.1-1.3,0.1-1.4h-0.1l-3,8.3H64z"/>
	<path d="M80.8,136.2c0,1.6-0.5,2.9-1.4,3.8c-0.9,0.9-2.2,1.3-4,1.3h-2.8v-10h3.1c1.6,0,2.8,0.4,3.7,1.3
		C80.3,133.5,80.8,134.7,80.8,136.2z M79,136.3c0-2.4-1.1-3.6-3.4-3.6h-1.4v7.2h1.2C77.8,139.9,79,138.7,79,136.3z"/>
</g>
<g>
	<rect x="100" y="110.4" class="st1" width="100" height="51.2"/>
	<path d="M126,117.6c0,1-0.3,1.8-1,2.4c-0.7,0.6-1.7,0.8-2.9,0.8h-1v3.7h-1.6v-10h2.9c1.2,0,2.2,0.2,2.8,0.8S126,116.6,126,117.6z
		 M121,119.4h0.9c0.8,0,1.5-0.2,1.8-0.4s0.6-0.8,0.6-1.4c0-0.6-0.2-1-0.5-1.3s-0.9-0.4-1.7-0.4H121L121,119.4L121,119.4z"/>
	<path d="M134.5,120.7c0,1.2-0.3,2.2-0.9,2.9s-1.5,1-2.6,1c-0.7,0-1.3-0.2-1.9-0.5c-0.5-0.3-1-0.8-1.2-1.4c-0.3-0.6-0.4-1.3-0.4-2.1
		c0-1.2,0.3-2.2,0.9-2.9c0.6-0.7,1.5-1,2.7-1c1.1,0,2,0.3,2.6,1.1C134.2,118.6,134.5,119.5,134.5,120.7z M129,120.7
		c0,1.8,0.6,2.6,1.9,2.6c1.3,0,1.9-0.9,1.9-2.6c0-1.7-0.6-2.6-1.9-2.6c-0.7,0-1.2,0.2-1.5,0.7S129,119.9,129,120.7z"/>
	<path d="M142.6,124.5l-1-3.5c-0.1-0.4-0.3-1.2-0.6-2.6h-0.1c-0.3,1.2-0.5,2.1-0.6,2.6l-1,3.5h-1.8l-2.1-7.6h1.6l1,3.7
		c0.2,0.9,0.4,1.7,0.5,2.4h0c0.1-0.3,0.1-0.7,0.2-1.2c0.1-0.4,0.2-0.8,0.2-1l1.1-4h1.8l1.1,4c0.1,0.2,0.1,0.6,0.3,1
		c0.1,0.5,0.2,0.8,0.2,1.1h0.1c0.1-0.6,0.2-1.3,0.5-2.3l1-3.7h1.6l-2.1,7.6C144.4,124.5,142.6,124.5,142.6,124.5z"/>
	<path d="M151.2,124.7c-1.2,0-2.1-0.3-2.8-1s-1-1.6-1-2.8c0-1.2,0.3-2.2,0.9-2.9s1.5-1.1,2.5-1.1c1,0,1.8,0.3,2.4,0.9
		s0.9,1.4,0.9,2.5v0.9H149c0,0.7,0.2,1.3,0.6,1.7s0.9,0.6,1.6,0.6c0.4,0,0.9,0,1.2-0.1c0.4-0.1,0.8-0.2,1.2-0.4v1.3
		c-0.4,0.2-0.8,0.3-1.2,0.4S151.7,124.7,151.2,124.7z M150.9,118c-0.5,0-0.9,0.2-1.2,0.5s-0.5,0.8-0.6,1.4h3.4
		c0-0.6-0.2-1.1-0.4-1.4C151.8,118.2,151.4,118,150.9,118z"/>
	<path d="M159.8,116.8c0.3,0,0.6,0,0.8,0.1l-0.2,1.5c-0.2-0.1-0.5-0.1-0.7-0.1c-0.6,0-1.2,0.2-1.6,0.6c-0.4,0.4-0.6,1-0.6,1.6v3.9
		h-1.6V117h1.3l0.2,1.3h0.1c0.2-0.4,0.6-0.8,1-1.1S159.3,116.8,159.8,116.8z"/>
	<path d="M172.4,120.7c0,1.2-0.3,2.2-0.9,2.9s-1.5,1-2.6,1c-0.7,0-1.3-0.2-1.9-0.5c-0.5-0.3-1-0.8-1.2-1.4c-0.3-0.6-0.4-1.3-0.4-2.1
		c0-1.2,0.3-2.2,0.9-2.9c0.6-0.7,1.5-1,2.7-1c1.1,0,2,0.3,2.6,1.1C172.1,118.6,172.4,119.5,172.4,120.7z M166.9,120.7
		c0,1.8,0.6,2.6,1.9,2.6c1.3,0,1.9-0.9,1.9-2.6c0-1.7-0.6-2.6-1.9-2.6c-0.7,0-1.2,0.2-1.5,0.7S166.9,119.9,166.9,120.7z"/>
	<path d="M180.9,124.5h-1.6v-4.7c0-0.6-0.1-1-0.4-1.3c-0.2-0.3-0.6-0.4-1.1-0.4c-0.7,0-1.2,0.2-1.5,0.6s-0.5,1.1-0.5,2v3.8h-1.6V117
		h1.3l0.2,1h0.1c0.2-0.4,0.6-0.6,1-0.8c0.4-0.2,0.9-0.3,1.4-0.3c1.8,0,2.7,0.9,2.7,2.8L180.9,124.5L180.9,124.5z"/>
	<path d="M124.1,137.5c0,1.2-0.3,2.2-0.9,2.9s-1.5,1-2.7,1c-0.7,0-1.3-0.2-1.9-0.5c-0.5-0.3-1-0.8-1.2-1.4c-0.3-0.6-0.4-1.3-0.4-2.1
		c0-1.2,0.3-2.2,0.9-2.9s1.5-1,2.7-1c1.1,0,2,0.4,2.6,1.1C123.8,135.4,124.1,136.3,124.1,137.5z M118.6,137.5c0,1.8,0.7,2.6,1.9,2.6
		c1.3,0,1.9-0.9,1.9-2.6c0-1.7-0.6-2.6-1.9-2.6c-0.7,0-1.2,0.2-1.5,0.7S118.6,136.7,118.6,137.5z"/>
	<path d="M129.8,133.6c0.3,0,0.6,0,0.8,0.1l-0.2,1.5c-0.2-0.1-0.5-0.1-0.7-0.1c-0.6,0-1.2,0.2-1.6,0.6c-0.4,0.4-0.6,1-0.6,1.6v3.9
		H126v-7.6h1.3l0.2,1.3h0.1c0.2-0.4,0.6-0.8,1-1.1S129.4,133.6,129.8,133.6z"/>
	<path d="M139.5,133.6c0.3,0,0.6,0,0.8,0.1l-0.2,1.5c-0.2-0.1-0.5-0.1-0.7-0.1c-0.6,0-1.2,0.2-1.6,0.6c-0.4,0.4-0.6,1-0.6,1.6v3.9
		h-1.6v-7.6h1.3l0.2,1.3h0.1c0.2-0.4,0.6-0.8,1-1.1S139.1,133.6,139.5,133.6z"/>
	<path d="M145,141.5c-1.2,0-2.1-0.3-2.8-1s-1-1.6-1-2.8c0-1.2,0.3-2.2,0.9-2.9s1.5-1.1,2.5-1.1c1,0,1.8,0.3,2.4,0.9s0.9,1.4,0.9,2.5
		v0.9h-5.1c0,0.7,0.2,1.3,0.6,1.7s0.9,0.6,1.6,0.6c0.4,0,0.9,0,1.2-0.1c0.4-0.1,0.8-0.2,1.2-0.4v1.3c-0.4,0.2-0.8,0.3-1.2,0.4
		S145.6,141.5,145,141.5z M144.8,134.8c-0.5,0-0.9,0.2-1.2,0.5s-0.5,0.8-0.6,1.4h3.4c0-0.6-0.2-1.1-0.4-1.4
		C145.7,135,145.3,134.8,144.8,134.8z"/>
	<path d="M151.4,141.3h-1.6v-10.6h1.6V141.3z"/>
	<path d="M157.1,141.5c-1.2,0-2.1-0.3-2.8-1s-1-1.6-1-2.8c0-1.2,0.3-2.2,0.9-2.9s1.5-1.1,2.5-1.1c1,0,1.8,0.3,2.4,0.9
		s0.9,1.4,0.9,2.5v0.9h-5.1c0,0.7,0.2,1.3,0.6,1.7s0.9,0.6,1.6,0.6c0.4,0,0.9,0,1.2-0.1c0.4-0.1,0.8-0.2,1.2-0.4v1.3
		c-0.4,0.2-0.8,0.3-1.2,0.4S157.6,141.5,157.1,141.5z M156.8,134.8c-0.5,0-0.9,0.2-1.2,0.5s-0.5,0.8-0.6,1.4h3.4
		c0-0.6-0.2-1.1-0.4-1.4C157.7,135,157.3,134.8,156.8,134.8z"/>
	<path d="M166.6,141.3l-0.3-1.1h-0.1c-0.4,0.5-0.7,0.8-1.1,0.9c-0.4,0.2-0.9,0.2-1.4,0.2c-0.8,0-1.3-0.2-1.8-0.6
		c-0.4-0.4-0.6-1-0.6-1.7c0-0.8,0.3-1.4,0.9-1.8s1.5-0.6,2.6-0.6l1.3,0v-0.4c0-0.5-0.1-0.8-0.3-1.1s-0.6-0.4-1.1-0.4
		c-0.4,0-0.8,0.1-1.1,0.2s-0.7,0.2-1,0.4l-0.5-1.1c0.4-0.2,0.9-0.4,1.4-0.5s0.9-0.2,1.4-0.2c1,0,1.7,0.2,2.2,0.6s0.7,1.1,0.7,2v5.1
		L166.6,141.3L166.6,141.3z M164.2,140.2c0.6,0,1.1-0.2,1.4-0.5s0.5-0.8,0.5-1.4v-0.7l-1,0c-0.8,0-1.3,0.1-1.7,0.4
		c-0.4,0.2-0.5,0.6-0.5,1c0,0.3,0.1,0.6,0.3,0.8C163.5,140.1,163.8,140.2,164.2,140.2z"/>
	<path d="M175.1,139.2c0,0.7-0.3,1.3-0.8,1.7c-0.5,0.4-1.3,0.6-2.3,0.6c-1,0-1.8-0.1-2.4-0.5v-1.4c0.9,0.4,1.7,0.6,2.5,0.6
		c1,0,1.5-0.3,1.5-0.9c0-0.2-0.1-0.4-0.2-0.5c-0.1-0.1-0.3-0.3-0.5-0.4s-0.6-0.3-1.1-0.5c-0.9-0.3-1.5-0.7-1.8-1s-0.5-0.8-0.5-1.3
		c0-0.6,0.3-1.1,0.8-1.5c0.5-0.4,1.2-0.5,2.1-0.5c0.9,0,1.7,0.2,2.5,0.5l-0.5,1.2c-0.8-0.3-1.5-0.5-2.1-0.5c-0.9,0-1.3,0.2-1.3,0.7
		c0,0.2,0.1,0.4,0.3,0.6s0.7,0.4,1.4,0.7c0.6,0.2,1.1,0.5,1.4,0.7s0.5,0.4,0.6,0.7C175,138.5,175.1,138.8,175.1,139.2z"/>
	<path d="M180.1,141.5c-1.2,0-2.1-0.3-2.8-1s-1-1.6-1-2.8c0-1.2,0.3-2.2,0.9-2.9s1.5-1.1,2.5-1.1c1,0,1.8,0.3,2.4,0.9
		s0.9,1.4,0.9,2.5v0.9H178c0,0.7,0.2,1.3,0.6,1.7s0.9,0.6,1.6,0.6c0.4,0,0.9,0,1.2-0.1c0.4-0.1,0.8-0.2,1.2-0.4v1.3
		c-0.4,0.2-0.8,0.3-1.2,0.4S180.6,141.5,180.1,141.5z M179.8,134.8c-0.5,0-0.9,0.2-1.2,0.5s-0.5,0.8-0.6,1.4h3.4
		c0-0.6-0.2-1.1-0.4-1.4C180.8,135,180.4,134.8,179.8,134.8z"/>
	<path d="M119.2,151.8h-1.8v6.3h-1.6v-6.3h-1.2V151l1.2-0.5V150c0-0.9,0.2-1.6,0.6-2c0.4-0.4,1.1-0.6,1.9-0.6c0.6,0,1.1,0.1,1.7,0.3
		l-0.4,1.2c-0.4-0.1-0.8-0.2-1.1-0.2c-0.4,0-0.6,0.1-0.8,0.3c-0.2,0.2-0.2,0.6-0.2,1v0.5h1.8L119.2,151.8L119.2,151.8z"/>
	<path d="M124.4,150.4c0.3,0,0.6,0,0.8,0.1L125,152c-0.2-0.1-0.5-0.1-0.7-0.1c-0.7,0-1.2,0.2-1.6,0.6s-0.6,1-0.6,1.6v3.9h-1.6v-7.6
		h1.3l0.2,1.3h0.1c0.2-0.4,0.6-0.8,1-1.1S123.9,150.4,124.4,150.4z"/>
	<path d="M133.3,154.3c0,1.2-0.3,2.2-0.9,2.9s-1.5,1-2.6,1c-0.7,0-1.3-0.2-1.9-0.5c-0.5-0.3-1-0.8-1.2-1.4c-0.3-0.6-0.4-1.3-0.4-2.1
		c0-1.2,0.3-2.2,0.9-2.9s1.5-1,2.7-1c1.1,0,2,0.4,2.6,1.1C133,152.2,133.3,153.1,133.3,154.3z M127.8,154.3c0,1.8,0.6,2.6,1.9,2.6
		c1.3,0,1.9-0.9,1.9-2.6c0-1.7-0.6-2.6-1.9-2.6c-0.7,0-1.2,0.2-1.5,0.7S127.8,153.5,127.8,154.3z"/>
	<path d="M141.6,158.1H140v-4.7c0-0.6-0.1-1-0.3-1.3c-0.2-0.3-0.6-0.4-1-0.4c-0.6,0-1.1,0.2-1.4,0.6c-0.3,0.4-0.4,1.1-0.4,2v3.8
		h-1.6v-7.6h1.3l0.2,1h0.1c0.2-0.4,0.5-0.6,0.9-0.8c0.4-0.2,0.8-0.3,1.3-0.3c1.2,0,1.9,0.4,2.3,1.2h0.1c0.2-0.4,0.5-0.7,0.9-0.9
		s0.9-0.3,1.4-0.3c0.9,0,1.6,0.2,2,0.7c0.4,0.5,0.6,1.1,0.6,2.1v4.9h-1.6v-4.7c0-0.6-0.1-1-0.3-1.3c-0.2-0.3-0.6-0.4-1-0.4
		c-0.6,0-1.1,0.2-1.4,0.6c-0.3,0.4-0.4,1-0.4,1.8L141.6,158.1L141.6,158.1z"/>
	<path d="M156.1,150.4c0.3,0,0.6,0,0.8,0.1l-0.2,1.5c-0.2-0.1-0.5-0.1-0.7-0.1c-0.6,0-1.2,0.2-1.6,0.6c-0.4,0.4-0.6,1-0.6,1.6v3.9
		h-1.6v-7.6h1.3l0.2,1.3h0.1c0.2-0.4,0.6-0.8,1-1.1S155.6,150.4,156.1,150.4z"/>
	<path d="M161.6,158.3c-1.2,0-2.1-0.3-2.8-1s-1-1.6-1-2.8c0-1.2,0.3-2.2,0.9-2.9s1.5-1.1,2.5-1.1c1,0,1.8,0.3,2.4,0.9
		s0.9,1.4,0.9,2.5v0.9h-5.1c0,0.7,0.2,1.3,0.6,1.7s0.9,0.6,1.6,0.6c0.4,0,0.9,0,1.2-0.1c0.4-0.1,0.8-0.2,1.2-0.4v1.3
		c-0.4,0.2-0.8,0.3-1.2,0.4S162.1,158.3,161.6,158.3z M161.3,151.6c-0.5,0-0.9,0.2-1.2,0.5s-0.5,0.8-0.6,1.4h3.4
		c0-0.6-0.2-1.1-0.4-1.4C162.2,151.8,161.8,151.6,161.3,151.6z"/>
	<path d="M171.5,156c0,0.7-0.3,1.3-0.8,1.7c-0.5,0.4-1.3,0.6-2.3,0.6c-1,0-1.8-0.1-2.4-0.5v-1.4c0.9,0.4,1.7,0.6,2.5,0.6
		c1,0,1.5-0.3,1.5-0.9c0-0.2-0.1-0.4-0.2-0.5c-0.1-0.1-0.3-0.3-0.5-0.4s-0.6-0.3-1.1-0.5c-0.9-0.3-1.5-0.7-1.8-1s-0.5-0.8-0.5-1.3
		c0-0.6,0.3-1.1,0.8-1.5c0.5-0.4,1.2-0.5,2.1-0.5c0.9,0,1.7,0.2,2.5,0.5l-0.5,1.2c-0.8-0.3-1.5-0.5-2.1-0.5c-0.9,0-1.3,0.2-1.3,0.7
		c0,0.2,0.1,0.4,0.3,0.6s0.7,0.4,1.4,0.7c0.6,0.2,1.1,0.5,1.4,0.7s0.5,0.4,0.6,0.7C171.4,155.3,171.5,155.6,171.5,156z"/>
	<path d="M176.6,158.3c-1.2,0-2.1-0.3-2.8-1s-1-1.6-1-2.8c0-1.2,0.3-2.2,0.9-2.9s1.5-1.1,2.5-1.1c1,0,1.8,0.3,2.4,0.9
		s0.9,1.4,0.9,2.5v0.9h-5.1c0,0.7,0.2,1.3,0.6,1.7s0.9,0.6,1.6,0.6c0.4,0,0.9,0,1.2-0.1c0.4-0.1,0.8-0.2,1.2-0.4v1.3
		c-0.4,0.2-0.8,0.3-1.2,0.4S177.1,158.3,176.6,158.3z M176.3,151.6c-0.5,0-0.9,0.2-1.2,0.5s-0.5,0.8-0.6,1.4h3.4
		c0-0.6-0.2-1.1-0.4-1.4C177.2,151.8,176.8,151.6,176.3,151.6z"/>
	<path d="M184.2,157c0.4,0,0.8-0.1,1.2-0.2v1.2c-0.2,0.1-0.4,0.1-0.7,0.2c-0.3,0.1-0.6,0.1-0.9,0.1c-1.5,0-2.3-0.8-2.3-2.4v-4.1h-1
		v-0.7l1.1-0.6l0.6-1.6h1v1.7h2.2v1.2h-2.2v4.1c0,0.4,0.1,0.7,0.3,0.9C183.6,156.9,183.9,157,184.2,157z"/>
</g>
<line class="st2" x1="5" y1="78.9" x2="35" y2="78.9"/>
<line class="st2" x1="65" y1="78.9" x2="95" y2="78.9"/>
<line class="st2" x1="34.3" y1="79.1" x2="64.3" y2="64.1"/>
<line class="st2" x1="52.5" y1="69.9" x2="52.5" y2="58.9"/>
<line class="st2" x1="47.5" y1="71.9" x2="47.5" y2="58.9"/>
<line class="st2" x1="40" y1="57.4" x2="60" y2="57.4"/>
<line class="st2" x1="58.5" y1="55.9" x2="58.5" y2="60.9"/>
<line class="st2" x1="41.5" y1="55.9" x2="41.5" y2="60.9"/>
<g>
	<g>
		<line class="st2" x1="50" y1="20.9" x2="50" y2="43.5"/>
		<g>
			<polygon points="40.8,36 42.5,34.5 50,42.6 57.5,34.5 59.2,36 50,45.9 			"/>
		</g>
	</g>
</g>
<g>
	<path d="M175,17.7c4.4,0,8,3.6,8,8s-3.6,8-8,8s-8-3.6-8-8S170.6,17.7,175,17.7 M175,15.7c-5.5,0-10,4.5-10,10s4.5,10,10,10
		s10-4.5,10-10S180.6,15.7,175,15.7L175,15.7z"/>
</g>
<g>
	<path d="M175,20.5c2.9,0,5.2,2.4,5.2,5.2S177.9,31,175,31s-5.2-2.4-5.2-5.2S172.1,20.5,175,20.5 M175,19.5c-3.4,0-6.2,2.8-6.2,6.2
		s2.8,6.2,6.2,6.2s6.2-2.8,6.2-6.2S178.5,19.5,175,19.5L175,19.5z"/>
</g>
<circle cx="168.8" cy="31.9" r="6.2"/>
<line class="st3" x1="169.3" y1="31.4" x2="155.1" y2="45.6"/>
<g>
	<path class="st4" d="M131.1,58.3l18.4-18.4l0,0c1.5-1.3,3.4-2.1,5.4-2.1c4.4,0,8,3.6,8,8c0,2-0.7,3.9-2.1,5.4l0,0l-0.4,0.4l-18,18
		L131.1,58.3z"/>
	<path d="M154.9,38.3c4.1,0,7.5,3.4,7.5,7.5c0,2.1-0.9,4-2.3,5.4l0,0l-17.7,17.7l-10.6-10.6l17.7-17.7l0,0
		C150.9,39.2,152.8,38.3,154.9,38.3 M154.9,37.3c-2,0-3.9,0.7-5.4,1.9l0,0l-0.7,0.7l-17.7,17.7l-0.7,0.7l0.7,0.7l10.6,10.6l0.7,0.7
		l0.7-0.7l17.7-17.7l0.7-0.7l0,0c1.2-1.5,1.9-3.4,1.9-5.4C163.4,41.2,159.6,37.3,154.9,37.3L154.9,37.3z"/>
</g>
<g>
	<circle class="st4" cx="136.9" cy="63.8" r="8"/>
	<path d="M136.9,56.3c4.1,0,7.5,3.4,7.5,7.5s-3.4,7.5-7.5,7.5s-7.5-3.4-7.5-7.5S132.8,56.3,136.9,56.3 M136.9,55.3
		c-4.7,0-8.5,3.8-8.5,8.5s3.8,8.5,8.5,8.5s8.5-3.8,8.5-8.5S141.6,55.3,136.9,55.3L136.9,55.3z"/>
</g>
<path class="st5" d="M136.9,63.8c-3.5,3.5-4.3,2.8-7.8,6.3c-3.5,3.5-2,5-5.6,8.6c-3.5,3.5-5,2-8.6,5.6"/>
<circle cx="136.9" cy="63.8" r="2.5"/>
<g>
	<g>
		<line class="st2" x1="150.6" y1="78.4" x2="173.6" y2="55.4"/>
		<g>
			<polygon points="174.9,67.2 172.6,67.1 173,56 161.9,56.4 161.9,54.2 175.4,53.7 			"/>
		</g>
	</g>
</g>
<line class="st6" x1="100" y1="100" x2="100" y2="0"/>
<line class="st6" x1="0" y1="100" x2="600" y2="100"/>
<line class="st6" x1="0" y1="0" x2="600" y2="0"/>
<line class="st6" x1="200" y1="100" x2="200" y2="0"/>
<line class="st6" x1="300" y1="100" x2="300" y2="0"/>
<line class="st6" x1="400" y1="100" x2="400" y2="0"/>
<line class="st6" x1="500" y1="100" x2="500" y2="0"/>
<g>
	<circle class="st4" cx="250" cy="49.3" r="28.5"/>
	<path d="M250,22.3c14.9,0,27,12.1,27,27s-12.1,27-27,27s-27-12.1-27-27S235.1,22.3,250,22.3 M250,19.3c-16.6,0-30,13.4-30,30
		s13.4,30,30,30s30-13.4,30-30S266.6,19.3,250,19.3L250,19.3z"/>
</g>
<g>
	<rect x="200" y="120.1" class="st1" width="100" height="31.9"/>
	<path d="M218.5,132.9h-1.8l-1.7-6c-0.1-0.3-0.2-0.6-0.3-1.1c-0.1-0.5-0.2-0.8-0.2-1c-0.1,0.3-0.1,0.7-0.2,1.1s-0.2,0.8-0.3,1
		l-1.7,5.9h-1.8l-1.3-5l-1.3-5h1.7l1.4,5.8c0.2,0.9,0.4,1.8,0.5,2.5c0.1-0.4,0.1-0.8,0.2-1.3c0.1-0.5,0.2-0.9,0.3-1.2l1.6-5.8h1.6
		l1.7,5.9c0.2,0.5,0.3,1.4,0.5,2.4c0.1-0.6,0.2-1.5,0.5-2.5l1.4-5.8h1.7L218.5,132.9z"/>
	<path d="M227.1,132.9l-0.3-1.1h-0.1c-0.4,0.5-0.7,0.8-1.1,0.9c-0.4,0.2-0.8,0.2-1.4,0.2c-0.7,0-1.3-0.2-1.7-0.6s-0.6-1-0.6-1.7
		c0-0.8,0.3-1.4,0.9-1.8c0.6-0.4,1.5-0.6,2.6-0.6l1.3,0v-0.4c0-0.5-0.1-0.8-0.3-1.1c-0.2-0.2-0.6-0.4-1.1-0.4
		c-0.4,0-0.8,0.1-1.1,0.2s-0.7,0.2-1,0.4l-0.5-1.2c0.4-0.2,0.9-0.4,1.4-0.5s0.9-0.2,1.4-0.2c1,0,1.7,0.2,2.2,0.6
		c0.5,0.4,0.7,1.1,0.7,2v5.1L227.1,132.9L227.1,132.9z M224.7,131.8c0.6,0,1.1-0.2,1.4-0.5c0.4-0.3,0.5-0.8,0.5-1.4v-0.7l-1,0
		c-0.8,0-1.3,0.1-1.6,0.4c-0.3,0.2-0.5,0.6-0.5,1c0,0.3,0.1,0.6,0.3,0.8C224,131.7,224.3,131.8,224.7,131.8z"/>
	<path d="M230.4,123.4c0-0.3,0.1-0.5,0.2-0.7s0.4-0.2,0.7-0.2c0.3,0,0.5,0.1,0.7,0.2s0.2,0.4,0.2,0.7c0,0.3-0.1,0.5-0.2,0.7
		s-0.4,0.2-0.7,0.2c-0.3,0-0.5-0.1-0.7-0.2C230.4,123.8,230.4,123.6,230.4,123.4z M232.1,132.9h-1.6v-7.6h1.6V132.9z"/>
	<path d="M237.2,131.8c0.4,0,0.8-0.1,1.2-0.2v1.2c-0.2,0.1-0.4,0.1-0.7,0.2c-0.3,0.1-0.6,0.1-0.9,0.1c-1.5,0-2.3-0.8-2.3-2.4v-4.1
		h-1v-0.7l1.1-0.6l0.6-1.6h1v1.7h2.2v1.2h-2.2v4.1c0,0.4,0.1,0.7,0.3,0.9C236.6,131.7,236.9,131.8,237.2,131.8z"/>
	<path d="M248.2,132.9l-0.3-1.1h-0.1c-0.4,0.5-0.7,0.8-1.1,0.9c-0.4,0.2-0.8,0.2-1.4,0.2c-0.7,0-1.3-0.2-1.7-0.6s-0.6-1-0.6-1.7
		c0-0.8,0.3-1.4,0.9-1.8c0.6-0.4,1.5-0.6,2.6-0.6l1.3,0v-0.4c0-0.5-0.1-0.8-0.3-1.1c-0.2-0.2-0.6-0.4-1.1-0.4
		c-0.4,0-0.8,0.1-1.1,0.2s-0.7,0.2-1,0.4l-0.5-1.2c0.4-0.2,0.9-0.4,1.4-0.5s0.9-0.2,1.4-0.2c1,0,1.7,0.2,2.2,0.6
		c0.5,0.4,0.7,1.1,0.7,2v5.1L248.2,132.9L248.2,132.9z M245.9,131.8c0.6,0,1.1-0.2,1.4-0.5c0.4-0.3,0.5-0.8,0.5-1.4v-0.7l-1,0
		c-0.8,0-1.3,0.1-1.6,0.4c-0.3,0.2-0.5,0.6-0.5,1c0,0.3,0.1,0.6,0.3,0.8C245.1,131.7,245.4,131.8,245.9,131.8z"/>
	<path d="M254.5,131.8c0.4,0,0.8-0.1,1.2-0.2v1.2c-0.2,0.1-0.4,0.1-0.7,0.2c-0.3,0.1-0.6,0.1-0.9,0.1c-1.5,0-2.3-0.8-2.3-2.4v-4.1
		h-1v-0.7l1.1-0.6l0.6-1.6h1v1.7h2.2v1.2h-2.2v4.1c0,0.4,0.1,0.7,0.3,0.9C253.9,131.7,254.1,131.8,254.5,131.8z"/>
	<path d="M262.4,132.9h-1.6v-10.6h1.6V132.9z"/>
	<path d="M268,133.1c-1.2,0-2.1-0.3-2.8-1s-1-1.6-1-2.8c0-1.2,0.3-2.2,0.9-2.9s1.5-1.1,2.5-1.1c1,0,1.8,0.3,2.4,0.9s0.9,1.4,0.9,2.5
		v0.9h-5c0,0.7,0.2,1.3,0.6,1.7s0.9,0.6,1.6,0.6c0.5,0,0.9,0,1.2-0.1c0.4-0.1,0.8-0.2,1.2-0.4v1.3c-0.4,0.2-0.8,0.3-1.2,0.4
		C269,133,268.5,133.1,268,133.1z M267.7,126.4c-0.5,0-0.9,0.2-1.2,0.5c-0.3,0.3-0.5,0.8-0.5,1.4h3.4c0-0.6-0.2-1.1-0.5-1.4
		C268.6,126.6,268.2,126.4,267.7,126.4z"/>
	<path d="M277.5,132.9l-0.3-1.1h0c-0.4,0.5-0.7,0.8-1.1,0.9s-0.8,0.2-1.4,0.2c-0.7,0-1.3-0.2-1.7-0.6c-0.4-0.4-0.6-1-0.6-1.7
		c0-0.8,0.3-1.4,0.9-1.8c0.6-0.4,1.5-0.6,2.6-0.6l1.3,0v-0.4c0-0.5-0.1-0.8-0.3-1.1c-0.2-0.2-0.6-0.4-1-0.4c-0.4,0-0.8,0.1-1.1,0.2
		s-0.7,0.2-1,0.4l-0.5-1.2c0.4-0.2,0.9-0.4,1.4-0.5c0.5-0.1,1-0.2,1.4-0.2c1,0,1.7,0.2,2.2,0.6s0.7,1.1,0.7,2v5.1L277.5,132.9
		L277.5,132.9z M275.1,131.8c0.6,0,1-0.2,1.4-0.5c0.4-0.3,0.5-0.8,0.5-1.4v-0.7l-1,0c-0.8,0-1.3,0.1-1.6,0.4c-0.3,0.2-0.5,0.6-0.5,1
		c0,0.3,0.1,0.6,0.3,0.8C274.4,131.7,274.7,131.8,275.1,131.8z"/>
	<path d="M286,130.8c0,0.7-0.3,1.3-0.8,1.7c-0.5,0.4-1.3,0.6-2.3,0.6c-1,0-1.8-0.1-2.4-0.5v-1.4c0.9,0.4,1.7,0.6,2.5,0.6
		c1,0,1.5-0.3,1.5-0.9c0-0.2,0-0.4-0.2-0.5s-0.3-0.3-0.5-0.4s-0.6-0.3-1-0.5c-0.9-0.3-1.5-0.7-1.8-1s-0.5-0.8-0.5-1.3
		c0-0.7,0.3-1.2,0.8-1.5s1.2-0.5,2.1-0.5c0.9,0,1.7,0.2,2.5,0.5l-0.5,1.2c-0.8-0.3-1.5-0.5-2.1-0.5c-0.9,0-1.3,0.2-1.3,0.7
		c0,0.2,0.1,0.4,0.3,0.6c0.2,0.2,0.7,0.4,1.5,0.7c0.6,0.2,1.1,0.5,1.4,0.7s0.5,0.4,0.6,0.7C285.9,130.1,286,130.4,286,130.8z"/>
	<path d="M290.5,131.8c0.4,0,0.8-0.1,1.2-0.2v1.2c-0.2,0.1-0.4,0.1-0.7,0.2c-0.3,0.1-0.6,0.1-0.9,0.1c-1.5,0-2.3-0.8-2.3-2.4v-4.1
		h-1v-0.7l1.1-0.6l0.5-1.6h1v1.7h2.2v1.2h-2.2v4.1c0,0.4,0.1,0.7,0.3,0.9C290,131.7,290.2,131.8,290.5,131.8z"/>
	<path d="M223.8,142c0,0.6-0.2,1.2-0.6,1.6c-0.4,0.4-0.9,0.7-1.6,0.9v0.1c0.8,0.1,1.4,0.4,1.8,0.8s0.6,0.9,0.6,1.6
		c0,1-0.3,1.7-1,2.2c-0.7,0.5-1.6,0.8-2.9,0.8c-1.1,0-2-0.2-2.8-0.5v-1.4c0.4,0.2,0.9,0.4,1.4,0.5c0.5,0.1,0.9,0.2,1.4,0.2
		c0.8,0,1.4-0.1,1.7-0.4c0.4-0.3,0.6-0.7,0.6-1.3c0-0.5-0.2-0.9-0.6-1.2s-1.1-0.4-2-0.4h-0.9v-1.3h0.9c1.6,0,2.4-0.6,2.4-1.6
		c0-0.4-0.1-0.8-0.4-1s-0.7-0.4-1.2-0.4c-0.4,0-0.7,0.1-1.1,0.2c-0.4,0.1-0.8,0.3-1.2,0.6l-0.8-1.1c0.9-0.7,2-1,3.2-1
		c1,0,1.8,0.2,2.4,0.6C223.5,140.7,223.8,141.3,223.8,142z"/>
	<path d="M234.6,147.6c0,0.7-0.3,1.3-0.8,1.7c-0.5,0.4-1.3,0.6-2.3,0.6c-1,0-1.8-0.1-2.4-0.5V148c0.9,0.4,1.7,0.6,2.5,0.6
		c1,0,1.5-0.3,1.5-0.9c0-0.2-0.1-0.4-0.2-0.5s-0.3-0.3-0.5-0.4s-0.6-0.3-1.1-0.5c-0.9-0.3-1.5-0.7-1.8-1s-0.5-0.8-0.5-1.3
		c0-0.6,0.3-1.1,0.8-1.5s1.2-0.5,2.1-0.5c0.9,0,1.7,0.2,2.5,0.5l-0.5,1.2c-0.8-0.3-1.5-0.5-2.1-0.5c-0.9,0-1.3,0.2-1.3,0.7
		c0,0.2,0.1,0.4,0.3,0.6s0.7,0.4,1.4,0.7c0.6,0.2,1.1,0.5,1.4,0.7s0.5,0.4,0.6,0.7C234.6,146.9,234.6,147.2,234.6,147.6z"/>
	<path d="M239.7,149.9c-1.2,0-2.1-0.3-2.8-1c-0.7-0.7-1-1.6-1-2.8c0-1.2,0.3-2.2,0.9-2.9c0.6-0.7,1.5-1.1,2.5-1.1
		c1,0,1.8,0.3,2.4,0.9s0.9,1.4,0.9,2.5v0.9h-5c0,0.7,0.2,1.3,0.6,1.7c0.4,0.4,0.9,0.6,1.6,0.6c0.4,0,0.9,0,1.2-0.1
		c0.4-0.1,0.8-0.2,1.2-0.4v1.3c-0.4,0.2-0.8,0.3-1.2,0.4S240.2,149.9,239.7,149.9z M239.4,143.2c-0.5,0-0.9,0.2-1.2,0.5
		c-0.3,0.3-0.5,0.8-0.6,1.4h3.4c0-0.6-0.2-1.1-0.4-1.4C240.3,143.4,239.9,143.2,239.4,143.2z"/>
	<path d="M247.5,149.9c-1.1,0-2-0.3-2.6-1c-0.6-0.7-0.9-1.6-0.9-2.9c0-1.3,0.3-2.2,0.9-2.9s1.5-1,2.7-1c0.8,0,1.5,0.1,2.2,0.4
		l-0.5,1.3c-0.7-0.3-1.2-0.4-1.7-0.4c-1.3,0-2,0.9-2,2.6c0,0.9,0.2,1.5,0.5,1.9c0.3,0.4,0.8,0.6,1.4,0.6c0.7,0,1.4-0.2,2-0.5v1.4
		c-0.3,0.2-0.6,0.3-0.9,0.4S248,149.9,247.5,149.9z"/>
	<path d="M258.1,145.9c0,1.2-0.3,2.2-1,2.9s-1.5,1-2.6,1c-0.7,0-1.3-0.2-1.9-0.5s-1-0.8-1.2-1.4c-0.3-0.6-0.4-1.3-0.4-2.1
		c0-1.2,0.3-2.2,0.9-2.9s1.5-1,2.7-1c1.1,0,2,0.4,2.6,1.1C257.8,143.8,258.1,144.7,258.1,145.9z M252.6,145.9c0,1.8,0.6,2.6,1.9,2.6
		c1.3,0,1.9-0.9,1.9-2.6c0-1.7-0.6-2.6-1.9-2.6c-0.7,0-1.2,0.2-1.5,0.7S252.6,145.1,252.6,145.9z"/>
	<path d="M266.6,149.7H265v-4.6c0-0.6-0.1-1-0.4-1.3s-0.6-0.4-1.1-0.4c-0.7,0-1.2,0.2-1.5,0.6c-0.3,0.4-0.5,1.1-0.5,2v3.8h-1.6v-7.6
		h1.3l0.2,1h0.1c0.2-0.4,0.5-0.6,1-0.8s0.9-0.3,1.4-0.3c1.8,0,2.7,0.9,2.7,2.8L266.6,149.7L266.6,149.7z"/>
	<path d="M271.4,149.9c-0.9,0-1.7-0.3-2.2-1s-0.8-1.6-0.8-2.9s0.3-2.2,0.8-2.9c0.5-0.7,1.3-1,2.2-1c1,0,1.8,0.4,2.3,1.1h0.1
		c-0.1-0.5-0.1-1-0.1-1.3v-2.8h1.6v10.6H274l-0.3-1h-0.1C273.1,149.5,272.4,149.9,271.4,149.9z M271.8,148.6c0.7,0,1.1-0.2,1.4-0.6
		s0.5-1,0.5-1.8V146c0-0.9-0.2-1.6-0.5-2s-0.8-0.6-1.5-0.6c-0.6,0-1,0.2-1.3,0.7s-0.5,1.1-0.5,2c0,0.8,0.1,1.5,0.4,1.9
		C270.8,148.3,271.2,148.6,271.8,148.6z"/>
	<path d="M282.7,147.6c0,0.7-0.3,1.3-0.8,1.7c-0.5,0.4-1.3,0.6-2.3,0.6c-1,0-1.8-0.1-2.4-0.5V148c0.9,0.4,1.7,0.6,2.5,0.6
		c1,0,1.5-0.3,1.5-0.9c0-0.2,0-0.4-0.2-0.5s-0.3-0.3-0.5-0.4s-0.6-0.3-1-0.5c-0.9-0.3-1.5-0.7-1.8-1s-0.5-0.8-0.5-1.3
		c0-0.6,0.3-1.1,0.8-1.5s1.2-0.5,2.1-0.5c0.9,0,1.7,0.2,2.5,0.5l-0.5,1.2c-0.8-0.3-1.5-0.5-2.1-0.5c-0.9,0-1.3,0.2-1.3,0.7
		c0,0.2,0.1,0.4,0.3,0.6s0.7,0.4,1.5,0.7c0.6,0.2,1.1,0.5,1.4,0.7s0.5,0.4,0.6,0.7C282.6,146.9,282.7,147.2,282.7,147.6z"/>
</g>
<line class="st2" x1="405" y1="78.9" x2="435" y2="78.9"/>
<line class="st2" x1="465" y1="78.9" x2="495" y2="78.9"/>
<line class="st2" x1="434.3" y1="79.1" x2="464.3" y2="64.1"/>
<line class="st2" x1="452.5" y1="69.9" x2="452.5" y2="58.9"/>
<line class="st2" x1="447.5" y1="71.9" x2="447.5" y2="58.9"/>
<line class="st2" x1="440" y1="57.4" x2="460" y2="57.4"/>
<line class="st2" x1="458.5" y1="55.9" x2="458.5" y2="60.9"/>
<line class="st2" x1="441.5" y1="55.9" x2="441.5" y2="60.9"/>
<g>
	<g>
		<line class="st2" x1="450" y1="45.9" x2="450" y2="23.4"/>
		<g>
			<polygon points="459.2,30.8 457.5,32.3 450,24.2 442.5,32.3 440.8,30.8 450,20.9 			"/>
		</g>
	</g>
</g>
<g>
	<rect x="400" y="129.9" class="st1" width="100" height="12.2"/>
	<path d="M413.5,137.3v4h-1.6v-10h2.8c1.3,0,2.2,0.2,2.9,0.7s0.9,1.2,0.9,2.2c0,1.2-0.6,2.1-1.9,2.7l2.8,4.4h-1.9l-2.4-4H413.5z
		 M413.5,136h1.1c0.8,0,1.3-0.1,1.6-0.4s0.5-0.7,0.5-1.3s-0.2-1-0.5-1.2s-0.9-0.4-1.7-0.4h-1.1L413.5,136L413.5,136z"/>
	<path d="M424,141.5c-1.2,0-2.1-0.3-2.8-1c-0.7-0.7-1-1.6-1-2.8c0-1.2,0.3-2.2,0.9-2.9c0.6-0.7,1.5-1.1,2.5-1.1c1,0,1.8,0.3,2.4,0.9
		s0.9,1.4,0.9,2.5v0.9h-5c0,0.7,0.2,1.3,0.6,1.7s0.9,0.6,1.6,0.6c0.5,0,0.9,0,1.2-0.1c0.4-0.1,0.8-0.2,1.2-0.4v1.3
		c-0.4,0.2-0.8,0.3-1.2,0.4C425,141.4,424.5,141.5,424,141.5z M423.7,134.8c-0.5,0-0.9,0.2-1.2,0.5c-0.3,0.3-0.5,0.8-0.5,1.4h3.4
		c0-0.6-0.2-1.1-0.5-1.4S424.2,134.8,423.7,134.8z"/>
	<path d="M430.4,141.3h-1.6v-10.6h1.6V141.3z"/>
	<path d="M436,141.5c-1.2,0-2.1-0.3-2.8-1c-0.7-0.7-1-1.6-1-2.8c0-1.2,0.3-2.2,0.9-2.9c0.6-0.7,1.5-1.1,2.5-1.1c1,0,1.8,0.3,2.4,0.9
		s0.9,1.4,0.9,2.5v0.9h-5c0,0.7,0.2,1.3,0.6,1.7s0.9,0.6,1.6,0.6c0.5,0,0.9,0,1.2-0.1c0.4-0.1,0.8-0.2,1.2-0.4v1.3
		c-0.4,0.2-0.8,0.3-1.2,0.4C436.9,141.4,436.5,141.5,436,141.5z M435.7,134.8c-0.5,0-0.9,0.2-1.2,0.5c-0.3,0.3-0.5,0.8-0.5,1.4h3.4
		c0-0.6-0.2-1.1-0.5-1.4S436.2,134.8,435.7,134.8z"/>
	<path d="M445.5,141.3l-0.3-1.1h0c-0.4,0.5-0.7,0.8-1.1,0.9s-0.8,0.2-1.4,0.2c-0.7,0-1.3-0.2-1.7-0.6c-0.4-0.4-0.6-1-0.6-1.7
		c0-0.8,0.3-1.4,0.9-1.8s1.5-0.6,2.6-0.6l1.3,0v-0.4c0-0.5-0.1-0.8-0.3-1.1c-0.2-0.2-0.6-0.4-1-0.4c-0.4,0-0.8,0.1-1.1,0.2
		c-0.4,0.1-0.7,0.2-1,0.4l-0.5-1.1c0.4-0.2,0.9-0.4,1.4-0.5c0.5-0.1,1-0.2,1.4-0.2c1,0,1.7,0.2,2.2,0.6s0.7,1.1,0.7,2v5.1
		L445.5,141.3L445.5,141.3z M443.1,140.2c0.6,0,1-0.2,1.4-0.5s0.5-0.8,0.5-1.4v-0.7l-1,0c-0.8,0-1.3,0.1-1.6,0.4
		c-0.3,0.2-0.5,0.6-0.5,1c0,0.3,0.1,0.6,0.3,0.8S442.7,140.2,443.1,140.2z"/>
	<path d="M453.9,139.2c0,0.7-0.3,1.3-0.8,1.7c-0.5,0.4-1.3,0.6-2.3,0.6c-1,0-1.8-0.1-2.4-0.5v-1.4c0.9,0.4,1.7,0.6,2.5,0.6
		c1,0,1.5-0.3,1.5-0.9c0-0.2,0-0.4-0.2-0.5c-0.1-0.1-0.3-0.3-0.5-0.4s-0.6-0.3-1-0.5c-0.9-0.3-1.5-0.7-1.8-1s-0.5-0.8-0.5-1.3
		c0-0.6,0.3-1.1,0.8-1.5s1.2-0.5,2.1-0.5c0.9,0,1.7,0.2,2.5,0.5l-0.5,1.2c-0.8-0.3-1.5-0.5-2.1-0.5c-0.9,0-1.3,0.2-1.3,0.7
		c0,0.2,0.1,0.4,0.3,0.6s0.7,0.4,1.5,0.7c0.6,0.2,1.1,0.5,1.4,0.7s0.5,0.4,0.6,0.7C453.9,138.5,453.9,138.8,453.9,139.2z"/>
	<path d="M459,141.5c-1.2,0-2.1-0.3-2.8-1c-0.7-0.7-1-1.6-1-2.8c0-1.2,0.3-2.2,0.9-2.9c0.6-0.7,1.5-1.1,2.5-1.1c1,0,1.8,0.3,2.4,0.9
		s0.9,1.4,0.9,2.5v0.9h-5c0,0.7,0.2,1.3,0.6,1.7s0.9,0.6,1.6,0.6c0.5,0,0.9,0,1.2-0.1c0.4-0.1,0.8-0.2,1.2-0.4v1.3
		c-0.4,0.2-0.8,0.3-1.2,0.4C459.9,141.4,459.5,141.5,459,141.5z M458.7,134.8c-0.5,0-0.9,0.2-1.2,0.5c-0.3,0.3-0.5,0.8-0.5,1.4h3.4
		c0-0.6-0.2-1.1-0.5-1.4S459.2,134.8,458.7,134.8z"/>
	<path d="M471.9,141.3L469,133h0c0.1,1.2,0.1,2.4,0.1,3.5v4.9h-1.5v-10h2.3l2.8,7.9h0l2.9-7.9h2.3v10h-1.6v-4.9c0-0.5,0-1.1,0-1.9
		s0-1.3,0.1-1.4h0l-3,8.3H471.9z"/>
	<path d="M488.6,136.2c0,1.6-0.5,2.9-1.4,3.8c-0.9,0.9-2.2,1.3-4,1.3h-2.8v-10h3.1c1.6,0,2.8,0.4,3.7,1.3
		C488.1,133.5,488.6,134.7,488.6,136.2z M486.9,136.3c0-2.4-1.1-3.6-3.4-3.6h-1.4v7.2h1.2C485.7,139.9,486.9,138.7,486.9,136.3z"/>
</g>
<g>
	<rect x="500" y="129.9" class="st1" width="100" height="12.2"/>
	<path class="st7" d="M520.6,141.3l-1.2-3.2h-4l-1.2,3.2H513l4-10h1l3.9,10H520.6z M519,137.1l-1.2-3.1c-0.2-0.4-0.3-0.9-0.5-1.4
		c-0.1,0.4-0.2,0.9-0.4,1.4l-1.2,3.1H519z"/>
	<path class="st7" d="M529.5,134.2c0,1-0.3,1.8-1,2.3c-0.7,0.5-1.7,0.8-3,0.8h-1.2v3.9h-1.2v-10h2.6
		C528.3,131.3,529.5,132.3,529.5,134.2z M524.3,136.4h1c1,0,1.8-0.2,2.2-0.5c0.5-0.3,0.7-0.9,0.7-1.6c0-0.7-0.2-1.1-0.7-1.5
		c-0.4-0.3-1.1-0.5-2-0.5h-1.3L524.3,136.4L524.3,136.4z"/>
	<path class="st7" d="M538,134.2c0,1-0.3,1.8-1,2.3c-0.7,0.5-1.7,0.8-3,0.8h-1.2v3.9h-1.2v-10h2.6C536.7,131.3,538,132.3,538,134.2z
		 M532.8,136.4h1c1,0,1.8-0.2,2.2-0.5c0.5-0.3,0.7-0.9,0.7-1.6c0-0.7-0.2-1.1-0.7-1.5c-0.4-0.3-1.1-0.5-2-0.5h-1.3L532.8,136.4
		L532.8,136.4z"/>
	<path class="st7" d="M546,136.3c0,1.7-0.3,3-0.8,3.9c-0.5,0.9-1.4,1.3-2.5,1.3c-1.1,0-1.9-0.4-2.5-1.3s-0.8-2.1-0.8-3.8
		c0-1.7,0.3-3,0.8-3.9c0.5-0.8,1.4-1.3,2.5-1.3c1.1,0,1.9,0.4,2.5,1.3C545.7,133.4,546,134.6,546,136.3z M540.5,136.3
		c0,1.4,0.2,2.5,0.5,3.2s0.9,1,1.6,1c0.8,0,1.3-0.3,1.6-1s0.5-1.7,0.5-3.2s-0.2-2.5-0.5-3.1c-0.3-0.7-0.9-1-1.6-1s-1.3,0.3-1.6,1
		C540.7,133.8,540.5,134.9,540.5,136.3z"/>
	<path class="st7" d="M556.3,139.3c0,0.7-0.3,1.2-0.8,1.6c-0.5,0.4-1.2,0.6-2.2,0.6c-1,0-1.8-0.2-2.3-0.5v-1.1
		c0.4,0.2,0.8,0.3,1.2,0.4c0.4,0.1,0.8,0.2,1.2,0.2c0.6,0,1-0.1,1.4-0.3s0.5-0.5,0.5-0.9c0-0.3-0.1-0.5-0.4-0.8s-0.8-0.4-1.5-0.7
		c-0.7-0.3-1.2-0.5-1.5-0.7c-0.3-0.2-0.5-0.4-0.7-0.7c-0.1-0.2-0.2-0.5-0.2-0.9c0-0.6,0.2-1.1,0.8-1.4c0.5-0.4,1.2-0.5,2-0.5
		c0.8,0,1.6,0.2,2.4,0.5l-0.4,0.9c-0.8-0.3-1.4-0.5-2-0.5c-0.5,0-0.9,0.1-1.2,0.2c-0.3,0.2-0.4,0.4-0.4,0.7c0,0.2,0,0.4,0.2,0.5
		c0.1,0.1,0.3,0.3,0.5,0.4c0.2,0.1,0.7,0.3,1.3,0.6c0.9,0.3,1.5,0.6,1.8,1C556.2,138.4,556.3,138.8,556.3,139.3z"/>
	<path class="st7" d="M560.6,140.5c0.2,0,0.4,0,0.6,0s0.3-0.1,0.4-0.1v0.9c-0.1,0.1-0.3,0.1-0.5,0.1s-0.5,0.1-0.7,0.1
		c-1.5,0-2.2-0.8-2.2-2.3v-4.5h-1.1v-0.6l1.1-0.5l0.5-1.6h0.7v1.7h2.2v0.9h-2.2v4.4c0,0.4,0.1,0.8,0.3,1
		C559.9,140.4,560.2,140.5,560.6,140.5z"/>
	<path class="st7" d="M567.7,141.3l-0.2-1.1h0c-0.4,0.5-0.8,0.8-1.1,0.9c-0.4,0.2-0.8,0.2-1.4,0.2c-0.7,0-1.3-0.2-1.8-0.6
		s-0.6-0.9-0.6-1.6c0-1.5,1.2-2.3,3.6-2.4l1.3,0v-0.5c0-0.6-0.1-1-0.4-1.3s-0.7-0.4-1.2-0.4c-0.6,0-1.3,0.2-2.1,0.6l-0.3-0.9
		c0.4-0.2,0.8-0.4,1.2-0.5s0.9-0.2,1.3-0.2c0.9,0,1.5,0.2,2,0.6c0.4,0.4,0.7,1,0.7,1.9v5.1L567.7,141.3L567.7,141.3z M565.2,140.5
		c0.7,0,1.3-0.2,1.7-0.6c0.4-0.4,0.6-0.9,0.6-1.6v-0.7l-1.1,0.1c-0.9,0-1.5,0.2-2,0.4s-0.6,0.6-0.6,1.2c0,0.4,0.1,0.7,0.4,0.9
		C564.4,140.4,564.7,140.5,565.2,140.5z"/>
	<path class="st7" d="M574.3,133.7c0.3,0,0.6,0,0.9,0.1l-0.2,1.1c-0.3-0.1-0.6-0.1-0.8-0.1c-0.6,0-1.1,0.2-1.5,0.7
		c-0.4,0.5-0.7,1.1-0.7,1.8v4h-1.1v-7.5h0.9l0.1,1.4h0c0.3-0.5,0.6-0.9,1-1.1C573.4,133.8,573.9,133.7,574.3,133.7z"/>
	<path class="st7" d="M579,140.5c0.2,0,0.4,0,0.6,0s0.3-0.1,0.4-0.1v0.9c-0.1,0.1-0.3,0.1-0.5,0.1s-0.5,0.1-0.7,0.1
		c-1.5,0-2.2-0.8-2.2-2.3v-4.5h-1.1v-0.6l1.1-0.5l0.5-1.6h0.7v1.7h2.2v0.9h-2.2v4.4c0,0.4,0.1,0.8,0.3,1
		C578.4,140.4,578.7,140.5,579,140.5z"/>
	<path class="st7" d="M586.4,139.3c0,0.7-0.3,1.2-0.8,1.6c-0.5,0.4-1.2,0.6-2.2,0.6c-1,0-1.8-0.2-2.3-0.5v-1.1
		c0.4,0.2,0.8,0.3,1.2,0.4c0.4,0.1,0.8,0.2,1.2,0.2c0.6,0,1-0.1,1.4-0.3s0.5-0.5,0.5-0.9c0-0.3-0.1-0.5-0.4-0.8s-0.8-0.4-1.5-0.7
		c-0.7-0.3-1.2-0.5-1.5-0.7c-0.3-0.2-0.5-0.4-0.7-0.7c-0.1-0.2-0.2-0.5-0.2-0.9c0-0.6,0.2-1.1,0.8-1.4c0.5-0.4,1.2-0.5,2-0.5
		c0.8,0,1.6,0.2,2.4,0.5l-0.4,0.9c-0.8-0.3-1.4-0.5-2-0.5c-0.5,0-0.9,0.1-1.2,0.2c-0.3,0.2-0.4,0.4-0.4,0.7c0,0.2,0,0.4,0.2,0.5
		c0.1,0.1,0.3,0.3,0.5,0.4c0.2,0.1,0.7,0.3,1.3,0.6c0.9,0.3,1.5,0.6,1.8,1C586.2,138.4,586.4,138.8,586.4,139.3z"/>
</g>
<g>
	<polygon class="st1" points="561.3,19.5 526,19.5 526,84.5 576,84.5 576,34.8 	"/>
	<path class="st8" d="M533.4,25.1c0,1.7-0.3,3-0.8,3.9c-0.6,0.8-1.4,1.3-2.6,1.3c-1.1,0-2-0.4-2.5-1.3s-0.9-2.1-0.9-3.8
		c0-1.8,0.3-3.1,0.8-3.9s1.4-1.2,2.5-1.2c1.1,0,2,0.4,2.5,1.3S533.4,23.5,533.4,25.1z M528.2,25.1c0,1.4,0.1,2.3,0.4,2.9
		c0.3,0.6,0.7,0.9,1.3,0.9s1.1-0.3,1.3-0.9c0.3-0.6,0.4-1.6,0.4-2.9c0-1.3-0.1-2.3-0.4-2.9c-0.3-0.6-0.7-0.9-1.3-0.9
		s-1.1,0.3-1.3,0.9C528.4,22.8,528.2,23.8,528.2,25.1z"/>
	<path class="st8" d="M539.3,30.1h-1.6v-6.5c0-0.8,0-1.4,0-1.8c-0.1,0.1-0.2,0.2-0.4,0.4c-0.2,0.1-0.7,0.5-1.5,1.3l-0.8-1l2.9-2.3
		h1.3L539.3,30.1L539.3,30.1z"/>
	<path class="st8" d="M549.4,25.1c0,1.7-0.3,3-0.8,3.9c-0.6,0.8-1.4,1.3-2.6,1.3c-1.1,0-2-0.4-2.5-1.3s-0.9-2.1-0.9-3.8
		c0-1.8,0.3-3.1,0.8-3.9s1.4-1.2,2.5-1.2c1.1,0,2,0.4,2.5,1.3S549.4,23.5,549.4,25.1z M544.2,25.1c0,1.4,0.1,2.3,0.4,2.9
		c0.3,0.6,0.7,0.9,1.3,0.9s1.1-0.3,1.3-0.9c0.3-0.6,0.4-1.6,0.4-2.9c0-1.3-0.1-2.3-0.4-2.9c-0.3-0.6-0.7-0.9-1.3-0.9
		s-1.1,0.3-1.3,0.9C544.3,22.8,544.2,23.8,544.2,25.1z"/>
	<path class="st8" d="M555.3,30.1h-1.6v-6.5c0-0.8,0-1.4,0-1.8c-0.1,0.1-0.2,0.2-0.4,0.4c-0.2,0.1-0.7,0.5-1.5,1.3l-0.8-1l2.9-2.3
		h1.3L555.3,30.1L555.3,30.1z"/>
	<path class="st8" d="M531.3,46.9h-1.6v-6.5c0-0.8,0-1.4,0-1.8c-0.1,0.1-0.2,0.2-0.4,0.4c-0.2,0.1-0.7,0.5-1.5,1.3l-0.8-1l2.9-2.3
		h1.3L531.3,46.9L531.3,46.9z"/>
	<path class="st8" d="M541.4,41.9c0,1.7-0.3,3-0.8,3.9s-1.4,1.3-2.6,1.3c-1.1,0-2-0.4-2.5-1.3s-0.9-2.2-0.9-3.8
		c0-1.8,0.3-3.1,0.8-3.9s1.4-1.2,2.5-1.2c1.1,0,2,0.4,2.5,1.3S541.4,40.3,541.4,41.9z M536.2,41.9c0,1.4,0.1,2.3,0.4,2.9
		c0.3,0.6,0.7,0.9,1.3,0.9s1.1-0.3,1.3-0.9c0.3-0.6,0.4-1.6,0.4-2.9c0-1.3-0.1-2.3-0.4-2.9c-0.3-0.6-0.7-0.9-1.3-0.9
		s-1.1,0.3-1.3,0.9C536.4,39.6,536.2,40.6,536.2,41.9z"/>
	<path class="st8" d="M547.3,46.9h-1.6v-6.5c0-0.8,0-1.4,0-1.8c-0.1,0.1-0.2,0.2-0.4,0.4c-0.2,0.1-0.7,0.5-1.5,1.3l-0.8-1l2.9-2.3
		h1.3L547.3,46.9L547.3,46.9z"/>
	<path class="st8" d="M557.4,41.9c0,1.7-0.3,3-0.8,3.9s-1.4,1.3-2.6,1.3c-1.1,0-2-0.4-2.5-1.3s-0.9-2.2-0.9-3.8
		c0-1.8,0.3-3.1,0.8-3.9s1.4-1.2,2.5-1.2c1.1,0,2,0.4,2.5,1.3S557.4,40.3,557.4,41.9z M552.2,41.9c0,1.4,0.1,2.3,0.4,2.9
		c0.3,0.6,0.7,0.9,1.3,0.9s1.1-0.3,1.3-0.9c0.3-0.6,0.4-1.6,0.4-2.9c0-1.3-0.1-2.3-0.4-2.9c-0.3-0.6-0.7-0.9-1.3-0.9
		s-1.1,0.3-1.3,0.9C552.3,39.6,552.2,40.6,552.2,41.9z"/>
	<path class="st8" d="M565.3,41.9c0,1.7-0.3,3-0.8,3.9s-1.4,1.3-2.6,1.3c-1.1,0-2-0.4-2.5-1.3s-0.9-2.2-0.9-3.8
		c0-1.8,0.3-3.1,0.8-3.9s1.4-1.2,2.5-1.2c1.1,0,2,0.4,2.5,1.3S565.3,40.3,565.3,41.9z M560.2,41.9c0,1.4,0.1,2.3,0.4,2.9
		c0.3,0.6,0.7,0.9,1.3,0.9s1.1-0.3,1.3-0.9c0.3-0.6,0.4-1.6,0.4-2.9c0-1.3-0.1-2.3-0.4-2.9c-0.3-0.6-0.7-0.9-1.3-0.9
		s-1.1,0.3-1.3,0.9C560.3,39.6,560.2,40.6,560.2,41.9z"/>
	<path class="st8" d="M571.3,46.9h-1.6v-6.5c0-0.8,0-1.4,0-1.8c-0.1,0.1-0.2,0.2-0.4,0.4c-0.2,0.1-0.7,0.5-1.5,1.3l-0.8-1l2.9-2.3
		h1.3L571.3,46.9L571.3,46.9z"/>
	<path class="st8" d="M531.3,63.7h-1.6v-6.5c0-0.8,0-1.4,0-1.8c-0.1,0.1-0.2,0.2-0.4,0.4c-0.2,0.1-0.7,0.5-1.5,1.3l-0.8-1l2.9-2.3
		h1.3L531.3,63.7L531.3,63.7z"/>
	<path class="st8" d="M541.4,58.7c0,1.7-0.3,3-0.8,3.9s-1.4,1.3-2.6,1.3c-1.1,0-2-0.4-2.5-1.3s-0.9-2.2-0.9-3.8
		c0-1.8,0.3-3.1,0.8-3.9s1.4-1.2,2.5-1.2c1.1,0,2,0.4,2.5,1.3S541.4,57.1,541.4,58.7z M536.2,58.7c0,1.4,0.1,2.3,0.4,2.9
		c0.3,0.6,0.7,0.9,1.3,0.9s1.1-0.3,1.3-0.9c0.3-0.6,0.4-1.6,0.4-2.9c0-1.3-0.1-2.3-0.4-2.9c-0.3-0.6-0.7-0.9-1.3-0.9
		s-1.1,0.3-1.3,0.9C536.4,56.4,536.2,57.4,536.2,58.7z"/>
	<path class="st8" d="M549.4,58.7c0,1.7-0.3,3-0.8,3.9s-1.4,1.3-2.6,1.3c-1.1,0-2-0.4-2.5-1.3s-0.9-2.2-0.9-3.8
		c0-1.8,0.3-3.1,0.8-3.9s1.4-1.2,2.5-1.2c1.1,0,2,0.4,2.5,1.3S549.4,57.1,549.4,58.7z M544.2,58.7c0,1.4,0.1,2.3,0.4,2.9
		c0.3,0.6,0.7,0.9,1.3,0.9s1.1-0.3,1.3-0.9c0.3-0.6,0.4-1.6,0.4-2.9c0-1.3-0.1-2.3-0.4-2.9c-0.3-0.6-0.7-0.9-1.3-0.9
		s-1.1,0.3-1.3,0.9C544.3,56.4,544.2,57.4,544.2,58.7z"/>
	<path class="st8" d="M555.3,63.7h-1.6v-6.5c0-0.8,0-1.4,0-1.8c-0.1,0.1-0.2,0.2-0.4,0.4c-0.2,0.1-0.7,0.5-1.5,1.3l-0.8-1l2.9-2.3
		h1.3L555.3,63.7L555.3,63.7z"/>
	<path class="st8" d="M565.3,58.7c0,1.7-0.3,3-0.8,3.9s-1.4,1.3-2.6,1.3c-1.1,0-2-0.4-2.5-1.3s-0.9-2.2-0.9-3.8
		c0-1.8,0.3-3.1,0.8-3.9s1.4-1.2,2.5-1.2c1.1,0,2,0.4,2.5,1.3S565.3,57.1,565.3,58.7z M560.2,58.7c0,1.4,0.1,2.3,0.4,2.9
		c0.3,0.6,0.7,0.9,1.3,0.9s1.1-0.3,1.3-0.9c0.3-0.6,0.4-1.6,0.4-2.9c0-1.3-0.1-2.3-0.4-2.9c-0.3-0.6-0.7-0.9-1.3-0.9
		s-1.1,0.3-1.3,0.9C560.3,56.4,560.2,57.4,560.2,58.7z"/>
	<path class="st8" d="M573.3,58.7c0,1.7-0.3,3-0.8,3.9s-1.4,1.3-2.6,1.3c-1.1,0-2-0.4-2.5-1.3s-0.9-2.2-0.9-3.8
		c0-1.8,0.3-3.1,0.8-3.9s1.4-1.2,2.5-1.2c1.1,0,2,0.4,2.5,1.3S573.3,57.1,573.3,58.7z M568.2,58.7c0,1.4,0.1,2.3,0.4,2.9
		c0.3,0.6,0.7,0.9,1.3,0.9s1.1-0.3,1.3-0.9c0.3-0.6,0.4-1.6,0.4-2.9c0-1.3-0.1-2.3-0.4-2.9c-0.3-0.6-0.7-0.9-1.3-0.9
		s-1.1,0.3-1.3,0.9C568.3,56.4,568.2,57.4,568.2,58.7z"/>
	<path class="st8" d="M533.4,75.5c0,1.7-0.3,3-0.8,3.9c-0.6,0.8-1.4,1.3-2.6,1.3c-1.1,0-2-0.4-2.5-1.3s-0.9-2.2-0.9-3.8
		c0-1.8,0.3-3.1,0.8-3.9c0.6-0.8,1.4-1.2,2.5-1.2c1.1,0,2,0.4,2.5,1.3S533.4,73.9,533.4,75.5z M528.2,75.5c0,1.4,0.1,2.3,0.4,2.9
		c0.3,0.6,0.7,0.9,1.3,0.9s1.1-0.3,1.3-0.9c0.3-0.6,0.4-1.6,0.4-2.9c0-1.3-0.1-2.3-0.4-2.9c-0.3-0.6-0.7-0.9-1.3-0.9
		s-1.1,0.3-1.3,0.9C528.4,73.2,528.2,74.2,528.2,75.5z"/>
	<path class="st8" d="M539.3,80.5h-1.6v-6.4c0-0.8,0-1.4,0-1.8c-0.1,0.1-0.2,0.2-0.4,0.4c-0.2,0.1-0.7,0.6-1.5,1.3l-0.8-1l2.9-2.3
		h1.3L539.3,80.5L539.3,80.5z"/>
	<path class="st8" d="M549.4,75.5c0,1.7-0.3,3-0.8,3.9c-0.6,0.8-1.4,1.3-2.6,1.3c-1.1,0-2-0.4-2.5-1.3s-0.9-2.2-0.9-3.8
		c0-1.8,0.3-3.1,0.8-3.9c0.6-0.8,1.4-1.2,2.5-1.2c1.1,0,2,0.4,2.5,1.3S549.4,73.9,549.4,75.5z M544.2,75.5c0,1.4,0.1,2.3,0.4,2.9
		c0.3,0.6,0.7,0.9,1.3,0.9s1.1-0.3,1.3-0.9c0.3-0.6,0.4-1.6,0.4-2.9c0-1.3-0.1-2.3-0.4-2.9c-0.3-0.6-0.7-0.9-1.3-0.9
		s-1.1,0.3-1.3,0.9C544.3,73.2,544.2,74.2,544.2,75.5z"/>
	<path class="st8" d="M557.4,75.5c0,1.7-0.3,3-0.8,3.9c-0.6,0.8-1.4,1.3-2.6,1.3c-1.1,0-2-0.4-2.5-1.3s-0.9-2.2-0.9-3.8
		c0-1.8,0.3-3.1,0.8-3.9c0.6-0.8,1.4-1.2,2.5-1.2c1.1,0,2,0.4,2.5,1.3S557.4,73.9,557.4,75.5z M552.2,75.5c0,1.4,0.1,2.3,0.4,2.9
		c0.3,0.6,0.7,0.9,1.3,0.9s1.1-0.3,1.3-0.9c0.3-0.6,0.4-1.6,0.4-2.9c0-1.3-0.1-2.3-0.4-2.9c-0.3-0.6-0.7-0.9-1.3-0.9
		s-1.1,0.3-1.3,0.9C552.3,73.2,552.2,74.2,552.2,75.5z"/>
	<path class="st8" d="M563.3,80.5h-1.6v-6.4c0-0.8,0-1.4,0-1.8c-0.1,0.1-0.2,0.2-0.4,0.4c-0.2,0.1-0.7,0.6-1.5,1.3l-0.8-1l2.9-2.3
		h1.3L563.3,80.5L563.3,80.5z"/>
	<path class="st8" d="M571.3,80.5h-1.6v-6.4c0-0.8,0-1.4,0-1.8c-0.1,0.1-0.2,0.2-0.4,0.4c-0.2,0.1-0.7,0.6-1.5,1.3l-0.8-1l2.9-2.3
		h1.3L571.3,80.5L571.3,80.5z"/>
</g>
<g>
	<path d="M559.9,18.5L574,33.2v48.3h-48v-63H559.9 M560.3,17.5H525v65h50V32.8L560.3,17.5L560.3,17.5z"/>
</g>
<g>
	<path class="st0" d="M258.3,23.6L250,49.3v-27c-14.9,0-27,12.1-27,27s12.1,27,27,27s27-12.1,27-27C277,37.3,269.2,27.1,258.3,23.6z
		"/>
</g>
<g>
	<circle class="st0" cx="550" cy="50" r="17"/>
	<path class="st9" d="M550,33.5c9.1,0,16.5,7.4,16.5,16.5s-7.4,16.5-16.5,16.5s-16.5-7.4-16.5-16.5S540.9,33.5,550,33.5 M550,32.5
		c-9.7,0-17.5,7.8-17.5,17.5s7.8,17.5,17.5,17.5s17.5-7.8,17.5-17.5S559.7,32.5,550,32.5L550,32.5z"/>
</g>
<g>
	<path class="st4" d="M557.8,50.4l-13.5,7.8c-0.3,0.2-0.8,0-0.8-0.4V42.2c0-0.4,0.4-0.6,0.8-0.4l13.5,7.8
		C558.1,49.8,558.1,50.2,557.8,50.4z"/>
</g>
<rect x="247.5" y="17.1" width="5" height="2.5"/>
<path d="M253,17.1h-6c-1.1,0-2-0.9-2-2v-1c0-1.1,0.9-2,2-2h6c1.1,0,2,0.9,2,2v1C255,16.2,254.1,17.1,253,17.1z"/>
<rect x="270.7" y="25.8" transform="matrix(0.7071 -0.7071 0.7071 0.7071 60.0083 200.1846)" width="1.9" height="3.7"/>
<path d="M273.6,28.3l-2.6-2.6c-0.7-0.7-0.7-1.9,0-2.6l0,0c0.7-0.7,1.9-0.7,2.6,0l2.6,2.6c0.7,0.7,0.7,1.9,0,2.6l0,0
	C275.6,29,274.4,29,273.6,28.3z"/>
<rect x="226.5" y="26.7" transform="matrix(0.7071 -0.7071 0.7071 0.7071 47.3236 169.5678)" width="3.7" height="1.9"/>
<path d="M229,25.7l-2.6,2.6c-0.7,0.7-1.9,0.7-2.6,0l0,0c-0.7-0.7-0.7-1.9,0-2.6l2.6-2.6c0.7-0.7,1.9-0.7,2.6,0l0,0
	C229.7,23.7,229.7,24.9,229,25.7z"/>
<line class="st10" x1="250" y1="21.8" x2="250" y2="24.8"/>
<line class="st10" x1="250" y1="73.8" x2="250" y2="76.8"/>
<line class="st10" x1="222.5" y1="49.3" x2="225.5" y2="49.3"/>
<line class="st10" x1="274.5" y1="49.3" x2="277.5" y2="49.3"/>
<line class="st10" x1="226.2" y1="63.1" x2="228.8" y2="61.6"/>
<line class="st10" x1="271.2" y1="37.1" x2="273.8" y2="35.6"/>
<line class="st10" x1="236.2" y1="73.1" x2="237.8" y2="70.5"/>
<line class="st10" x1="262.2" y1="28.1" x2="263.8" y2="25.5"/>
<line class="st10" x1="263.8" y1="73.1" x2="262.2" y2="70.5"/>
<line class="st10" x1="237.8" y1="28.1" x2="236.2" y2="25.5"/>
<line class="st10" x1="273.8" y1="63.1" x2="271.2" y2="61.6"/>
<line class="st10" x1="228.8" y1="37.1" x2="226.2" y2="35.6"/>
<circle cx="250" cy="49.3" r="1.2"/>
<line class="st11" x1="250" y1="49.3" x2="259" y2="21.7"/>
<line class="st6" x1="0" y1="100" x2="0" y2="0"/>
<line class="st6" x1="599" y1="100" x2="599" y2="0"/>
<g>
	<rect x="318.5" y="29.5" class="st4" width="13" height="41"/>
	<path d="M331,30v40h-12V30H331 M332,29h-1h-12h-1v1v40v1h1h12h1v-1V30V29L332,29z"/>
</g>
<rect x="319" y="35" class="st9" width="12" height="30"/>
<g>
	<rect x="343.5" y="29.5" class="st4" width="13" height="41"/>
	<path d="M356,30v40h-12V30H356 M357,29h-1h-12h-1v1v40v1h1h12h1v-1V30V29L357,29z"/>
</g>
<rect x="344" y="35" class="st12" width="12" height="30"/>
<g>
	<rect x="368.5" y="29.5" class="st4" width="13" height="41"/>
	<path d="M381,30v40h-12V30H381 M382,29h-1h-12h-1v1v40v1h1h12h1v-1V30V29L382,29z"/>
</g>
<rect x="369" y="35" class="st9" width="12" height="30"/>
<g>
	<g>
		<line class="st13" x1="350" y1="23" x2="350" y2="13"/>
		<line class="st14" x1="345.5" y1="24.3" x2="340.5" y2="15.7"/>
		<line class="st14" x1="354.5" y1="24.3" x2="359.5" y2="15.7"/>
		<line class="st13" x1="350" y1="77" x2="350" y2="87"/>
		<line class="st14" x1="345.5" y1="75.7" x2="340.5" y2="84.3"/>
		<line class="st14" x1="354.5" y1="75.7" x2="359.5" y2="84.3"/>
		<line class="st13" x1="350" y1="23" x2="350" y2="13"/>
		<line class="st14" x1="345.5" y1="24.3" x2="340.5" y2="15.7"/>
		<line class="st14" x1="354.5" y1="24.3" x2="359.5" y2="15.7"/>
		<line class="st13" x1="350" y1="77" x2="350" y2="87"/>
		<line class="st14" x1="345.5" y1="75.7" x2="340.5" y2="84.3"/>
		<line class="st14" x1="354.5" y1="75.7" x2="359.5" y2="84.3"/>
	</g>
	<line class="st13" x1="350" y1="23" x2="350" y2="13"/>
	<line class="st14" x1="345.5" y1="24.3" x2="340.5" y2="15.7"/>
	<line class="st14" x1="354.5" y1="24.3" x2="359.5" y2="15.7"/>
</g>
<g>
	<rect x="300" y="120.2" class="st1" width="100" height="31.6"/>
	<path class="st15" d="M320.4,130.3c0,0.9-0.3,1.6-1,2.1c-0.6,0.5-1.5,0.7-2.6,0.7c-1.2,0-2.1-0.1-2.7-0.5v-1.1
		c0.4,0.2,0.9,0.3,1.3,0.4s1,0.1,1.4,0.1c0.8,0,1.4-0.1,1.8-0.4c0.4-0.3,0.6-0.7,0.6-1.2c0-0.4-0.1-0.6-0.2-0.9
		c-0.1-0.2-0.4-0.4-0.7-0.6s-0.8-0.4-1.5-0.6c-0.9-0.3-1.6-0.7-2-1.2s-0.6-1.1-0.6-1.8c0-0.8,0.3-1.4,0.9-1.8s1.4-0.7,2.3-0.7
		c1,0,1.9,0.2,2.8,0.6l-0.4,1c-0.8-0.3-1.6-0.5-2.4-0.5c-0.6,0-1.1,0.1-1.5,0.4c-0.4,0.3-0.5,0.6-0.5,1.1c0,0.3,0.1,0.6,0.2,0.8
		s0.3,0.4,0.6,0.6c0.3,0.2,0.8,0.4,1.4,0.6c1,0.4,1.8,0.8,2.2,1.2S320.4,129.6,320.4,130.3z"/>
	<path class="st15" d="M328.7,129.2c0,1.2-0.3,2.2-0.9,2.9s-1.5,1-2.6,1c-0.7,0-1.3-0.2-1.8-0.5c-0.5-0.3-0.9-0.8-1.2-1.4
		c-0.3-0.6-0.4-1.3-0.4-2.1c0-1.2,0.3-2.2,0.9-2.8c0.6-0.7,1.5-1,2.5-1c1,0,1.9,0.3,2.5,1.1C328.4,127,328.7,128,328.7,129.2z
		 M323,129.2c0,1,0.2,1.7,0.6,2.2s1,0.8,1.7,0.8c0.8,0,1.3-0.2,1.7-0.8s0.6-1.2,0.6-2.2c0-0.9-0.2-1.7-0.6-2.2
		c-0.4-0.5-1-0.7-1.7-0.7s-1.3,0.2-1.7,0.7C323.2,127.5,323,128.2,323,129.2z"/>
	<path class="st15" d="M331.9,132.9h-1.1v-10.6h1.1V132.9z"/>
	<path class="st15" d="M334.2,123.4c0-0.3,0.1-0.4,0.2-0.6s0.3-0.2,0.5-0.2c0.2,0,0.3,0.1,0.5,0.2s0.2,0.3,0.2,0.6s-0.1,0.4-0.2,0.6
		c-0.1,0.1-0.3,0.2-0.5,0.2c-0.2,0-0.4-0.1-0.5-0.2C334.2,123.8,334.2,123.7,334.2,123.4z M335.4,132.9h-1.1v-7.5h1.1V132.9z"/>
	<path class="st15" d="M342.9,131.9L342.9,131.9c-0.6,0.8-1.4,1.1-2.4,1.1c-1,0-1.8-0.3-2.3-1c-0.5-0.7-0.8-1.6-0.8-2.9
		s0.3-2.2,0.8-2.9s1.3-1,2.3-1c1,0,1.8,0.4,2.4,1.1h0.1l0-0.5l0-0.5v-3.1h1.1v10.6h-0.9L342.9,131.9z M340.7,132.1
		c0.8,0,1.3-0.2,1.7-0.6s0.5-1.1,0.5-2v-0.2c0-1.1-0.2-1.8-0.5-2.3s-0.9-0.7-1.7-0.7c-0.7,0-1.2,0.3-1.5,0.8s-0.5,1.2-0.5,2.2
		c0,1,0.2,1.7,0.5,2.2C339.5,131.9,340,132.1,340.7,132.1z"/>
	<path class="st15" d="M356.2,125.4v0.7l-1.4,0.2c0.1,0.2,0.2,0.4,0.3,0.6c0.1,0.3,0.1,0.6,0.1,0.9c0,0.7-0.2,1.3-0.8,1.8
		s-1.2,0.7-2.1,0.7c-0.2,0-0.4,0-0.6-0.1c-0.5,0.2-0.7,0.6-0.7,1c0,0.2,0.1,0.4,0.2,0.5s0.5,0.1,0.9,0.1h1.3c0.8,0,1.4,0.2,1.9,0.5
		s0.7,0.8,0.7,1.5c0,0.8-0.3,1.5-1,1.9c-0.7,0.4-1.6,0.6-2.9,0.6c-1,0-1.7-0.2-2.3-0.6c-0.5-0.4-0.8-0.9-0.8-1.5
		c0-0.5,0.1-0.9,0.4-1.2c0.3-0.3,0.7-0.6,1.2-0.7c-0.2-0.1-0.4-0.2-0.5-0.4s-0.2-0.4-0.2-0.6c0-0.3,0.1-0.5,0.2-0.7s0.4-0.4,0.7-0.6
		c-0.4-0.2-0.7-0.4-1-0.8c-0.2-0.4-0.4-0.8-0.4-1.3c0-0.8,0.2-1.4,0.7-1.9c0.5-0.4,1.2-0.7,2.1-0.7c0.4,0,0.8,0,1.1,0.1L356.2,125.4
		L356.2,125.4z M350.2,134.2c0,0.4,0.2,0.7,0.5,0.9c0.3,0.2,0.8,0.3,1.5,0.3c1,0,1.7-0.1,2.1-0.4s0.7-0.7,0.7-1.2
		c0-0.4-0.1-0.7-0.4-0.8c-0.2-0.2-0.7-0.2-1.4-0.2h-1.4c-0.5,0-0.9,0.1-1.2,0.4S350.2,133.7,350.2,134.2z M350.9,127.8
		c0,0.5,0.1,0.9,0.5,1.2c0.3,0.3,0.7,0.4,1.2,0.4c1.1,0,1.7-0.5,1.7-1.6c0-1.1-0.6-1.7-1.7-1.7c-0.5,0-1,0.1-1.2,0.4
		S350.9,127.3,350.9,127.8z"/>
	<path class="st15" d="M361.2,125.3c0.3,0,0.6,0,0.9,0.1l-0.2,1.1c-0.3-0.1-0.6-0.1-0.8-0.1c-0.6,0-1.1,0.2-1.6,0.7
		s-0.6,1.1-0.6,1.8v4h-1.1v-7.5h0.9l0.1,1.4h0c0.3-0.5,0.6-0.9,1-1.1C360.3,125.4,360.7,125.3,361.2,125.3z"/>
	<path class="st15" d="M366.7,133.1c-1.1,0-2-0.3-2.6-1s-1-1.6-1-2.8c0-1.2,0.3-2.2,0.9-2.9s1.4-1.1,2.4-1.1c0.9,0,1.7,0.3,2.2,0.9
		s0.8,1.4,0.8,2.4v0.7h-5.2c0,0.9,0.2,1.6,0.7,2s1,0.7,1.8,0.7c0.8,0,1.6-0.2,2.4-0.5v1c-0.4,0.2-0.8,0.3-1.1,0.4
		C367.6,133,367.2,133.1,366.7,133.1z M366.4,126.2c-0.6,0-1.1,0.2-1.4,0.6c-0.4,0.4-0.6,0.9-0.6,1.6h3.9c0-0.7-0.2-1.3-0.5-1.6
		C367.4,126.4,367,126.2,366.4,126.2z"/>
	<path class="st15" d="M374.6,133.1c-1.1,0-2-0.3-2.6-1s-1-1.6-1-2.8c0-1.2,0.3-2.2,0.9-2.9s1.4-1.1,2.4-1.1c0.9,0,1.7,0.3,2.2,0.9
		s0.8,1.4,0.8,2.4v0.7h-5.2c0,0.9,0.2,1.6,0.7,2s1,0.7,1.8,0.7c0.8,0,1.6-0.2,2.4-0.5v1c-0.4,0.2-0.8,0.3-1.1,0.4
		C375.5,133,375.1,133.1,374.6,133.1z M374.3,126.2c-0.6,0-1.1,0.2-1.4,0.6c-0.4,0.4-0.6,0.9-0.6,1.6h3.9c0-0.7-0.2-1.3-0.5-1.6
		C375.3,126.4,374.9,126.2,374.3,126.2z"/>
	<path class="st15" d="M384.4,132.9v-4.9c0-0.6-0.1-1.1-0.4-1.4s-0.7-0.4-1.3-0.4c-0.8,0-1.4,0.2-1.7,0.6c-0.4,0.4-0.5,1.1-0.5,2.1
		v3.9h-1.1v-7.5h0.9l0.2,1h0c0.2-0.4,0.6-0.7,1-0.9s0.9-0.3,1.4-0.3c0.9,0,1.6,0.2,2,0.7c0.5,0.4,0.7,1.1,0.7,2.1v4.9L384.4,132.9
		L384.4,132.9z"/>
	<path class="st15" d="M321.7,147.7c0,0.7-0.3,1.2-0.8,1.6s-1.2,0.6-2.2,0.6c-1,0-1.8-0.2-2.3-0.5v-1.1c0.4,0.2,0.8,0.3,1.2,0.4
		c0.4,0.1,0.8,0.2,1.2,0.2c0.6,0,1-0.1,1.4-0.3s0.5-0.5,0.5-0.9c0-0.3-0.1-0.5-0.4-0.8s-0.8-0.4-1.5-0.7c-0.7-0.3-1.2-0.5-1.5-0.7
		c-0.3-0.2-0.5-0.4-0.7-0.7c-0.1-0.2-0.2-0.5-0.2-0.9c0-0.6,0.2-1.1,0.8-1.4c0.5-0.4,1.2-0.5,2-0.5c0.8,0,1.6,0.2,2.4,0.5l-0.4,0.9
		c-0.8-0.3-1.4-0.5-2-0.5c-0.5,0-1,0.1-1.2,0.2s-0.4,0.4-0.4,0.7c0,0.2,0,0.4,0.1,0.5s0.3,0.3,0.5,0.4s0.7,0.3,1.3,0.6
		c0.9,0.3,1.5,0.6,1.8,1C321.5,146.8,321.7,147.2,321.7,147.7z"/>
	<path class="st15" d="M326,148.9c0.2,0,0.4,0,0.6,0c0.2,0,0.3-0.1,0.5-0.1v0.9c-0.1,0.1-0.3,0.1-0.5,0.1s-0.5,0.1-0.6,0.1
		c-1.5,0-2.2-0.8-2.2-2.3v-4.5h-1.1v-0.6l1.1-0.5l0.5-1.6h0.7v1.7h2.2v0.9h-2.2v4.4c0,0.4,0.1,0.8,0.3,1S325.6,148.9,326,148.9z"/>
	<path class="st15" d="M333.1,149.7l-0.2-1.1h0c-0.4,0.5-0.8,0.8-1.1,0.9c-0.4,0.2-0.8,0.2-1.4,0.2c-0.8,0-1.3-0.2-1.8-0.6
		s-0.6-0.9-0.6-1.6c0-1.5,1.2-2.3,3.6-2.4l1.3,0v-0.5c0-0.6-0.1-1-0.4-1.3s-0.7-0.4-1.2-0.4c-0.6,0-1.3,0.2-2.1,0.6l-0.4-0.9
		c0.4-0.2,0.8-0.4,1.2-0.5s0.9-0.2,1.3-0.2c0.9,0,1.6,0.2,2,0.6c0.4,0.4,0.6,1,0.6,1.9v5.1L333.1,149.7L333.1,149.7z M330.5,148.9
		c0.7,0,1.3-0.2,1.7-0.6s0.6-0.9,0.6-1.6V146l-1.1,0.1c-0.9,0-1.6,0.2-2,0.4s-0.6,0.6-0.6,1.2c0,0.4,0.1,0.7,0.4,0.9
		S330.1,148.9,330.5,148.9z"/>
	<path class="st15" d="M338.7,148.9c0.2,0,0.4,0,0.6,0c0.2,0,0.3-0.1,0.5-0.1v0.9c-0.1,0.1-0.3,0.1-0.5,0.1c-0.2,0-0.5,0.1-0.6,0.1
		c-1.5,0-2.2-0.8-2.2-2.3v-4.5h-1.1v-0.6l1.1-0.5l0.5-1.6h0.7v1.7h2.2v0.9h-2.2v4.4c0,0.4,0.1,0.8,0.3,1
		C338.1,148.8,338.4,148.9,338.7,148.9z"/>
	<path class="st15" d="M342.3,142.2v4.9c0,0.6,0.1,1.1,0.4,1.4c0.3,0.3,0.7,0.4,1.3,0.4c0.8,0,1.4-0.2,1.7-0.6
		c0.4-0.4,0.5-1.1,0.5-2.1v-3.9h1.1v7.5h-0.9l-0.2-1h-0.1c-0.2,0.4-0.6,0.6-1,0.9c-0.4,0.2-0.9,0.3-1.4,0.3c-0.9,0-1.6-0.2-2-0.6
		s-0.7-1.1-0.7-2.1v-4.9H342.3z"/>
	<path class="st15" d="M354.7,147.7c0,0.7-0.3,1.2-0.8,1.6s-1.2,0.6-2.2,0.6c-1,0-1.8-0.2-2.3-0.5v-1.1c0.4,0.2,0.8,0.3,1.2,0.4
		c0.4,0.1,0.8,0.2,1.2,0.2c0.6,0,1-0.1,1.4-0.3s0.5-0.5,0.5-0.9c0-0.3-0.1-0.5-0.4-0.8s-0.8-0.4-1.5-0.7c-0.7-0.3-1.2-0.5-1.5-0.7
		c-0.3-0.2-0.5-0.4-0.7-0.7c-0.1-0.2-0.2-0.5-0.2-0.9c0-0.6,0.2-1.1,0.8-1.4c0.5-0.4,1.2-0.5,2-0.5c0.8,0,1.6,0.2,2.4,0.5l-0.4,0.9
		c-0.8-0.3-1.4-0.5-2-0.5c-0.5,0-1,0.1-1.2,0.2s-0.4,0.4-0.4,0.7c0,0.2,0,0.4,0.1,0.5s0.3,0.3,0.5,0.4s0.7,0.3,1.3,0.6
		c0.9,0.3,1.5,0.6,1.8,1C354.6,146.8,354.7,147.2,354.7,147.7z"/>
	<path class="st15" d="M360.4,149.7v-10h1.2v8.9h4.4v1.1H360.4z"/>
	<path class="st15" d="M373.3,149.7h-5.6v-10h5.6v1h-4.4v3.2h4.2v1h-4.2v3.7h4.4V149.7z"/>
	<path class="st15" d="M383.5,144.6c0,1.6-0.5,2.9-1.4,3.8s-2.2,1.3-3.9,1.3h-2.8v-10h3.1c1.6,0,2.8,0.4,3.6,1.3
		S383.5,143.1,383.5,144.6z M382.3,144.7c0-1.3-0.3-2.3-1-2.9s-1.6-1-2.9-1h-1.7v8h1.4c1.4,0,2.4-0.3,3.1-1
		C381.9,147,382.3,146,382.3,144.7z"/>
</g>
</svg>
